<svg width="440" height="440" viewBox="0 0 440 440" fill="none" xmlns="http://www.w3.org/2000/svg">
<rect x="0.5" y="29.5" width="439" height="410" fill="white" stroke="black"/>
<rect x="0.5" y="0.5" width="439" height="29" stroke="black"/>
<circle cx="16" cy="15" r="9.5" fill="black" stroke="black"/>
<circle cx="40" cy="15" r="9.5" stroke="black"/>
<circle cx="64" cy="15" r="9.5" stroke="black"/>
<rect x="10.5" y="40.5" width="69" height="189" stroke="black"/>
<rect x="10.5" y="40.5" width="419" height="69" stroke="black"/>
<rect x="90.5" y="120.5" width="229" height="69" stroke="black"/>
<rect x="90.5" y="200.5" width="339" height="229" stroke="black"/>
<rect x="90.5" y="200.5" width="339" height="49" stroke="black"/>
<rect x="90.5" y="249.5" width="339" height="30" stroke="black"/>
<rect x="90.5" y="279.5" width="339" height="30" stroke="black"/>
<rect x="90.5" y="309.5" width="339" height="30" stroke="black"/>
<rect x="90.5" y="339.5" width="339" height="30" stroke="black"/>
<rect x="90.5" y="369.5" width="339" height="30" stroke="black"/>
<path d="M107.216 296.36H114.176L106.592 329H94.352L86.768 296.36H93.728L99.392 323.24H101.552L107.216 296.36ZM117.898 329V305H124.33V329H117.898ZM117.898 301.928V295.4H124.33V301.928H117.898ZM135.553 319.736C135.585 321.208 135.969 322.28 136.705 322.952C137.473 323.592 138.561 323.912 139.969 323.912C142.945 323.912 145.601 323.816 147.937 323.624L149.281 323.48L149.377 328.232C145.697 329.128 142.369 329.576 139.393 329.576C135.777 329.576 133.153 328.616 131.521 326.696C129.889 324.776 129.073 321.656 129.073 317.336C129.073 308.728 132.609 304.424 139.681 304.424C146.657 304.424 150.145 308.04 150.145 315.272L149.665 319.736H135.553ZM143.809 314.84C143.809 312.92 143.505 311.592 142.897 310.856C142.289 310.088 141.217 309.704 139.681 309.704C138.177 309.704 137.105 310.104 136.465 310.904C135.857 311.672 135.537 312.984 135.505 314.84H143.809ZM152.918 305H159.254L162.182 323.528H163.334L166.982 305.48H173.606L177.254 323.528H178.406L181.334 305H187.67L183.11 329H173.03L170.294 314.312L167.558 329H157.478L152.918 305ZM211.343 304.424C213.007 304.424 215.135 304.68 217.727 305.192L219.023 305.48L218.831 310.568C216.303 310.312 214.431 310.184 213.215 310.184C211.007 310.184 209.535 310.664 208.799 311.624C208.095 312.552 207.743 314.328 207.743 316.952C207.743 319.576 208.095 321.384 208.799 322.376C209.535 323.336 211.023 323.816 213.263 323.816L218.831 323.432L219.023 328.568C215.599 329.24 212.991 329.576 211.199 329.576C207.647 329.576 205.087 328.584 203.519 326.6C201.983 324.584 201.215 321.368 201.215 316.952C201.215 312.536 202.015 309.352 203.615 307.4C205.215 305.416 207.791 304.424 211.343 304.424ZM242.173 312.488V322.472C242.237 323.24 242.365 323.784 242.557 324.104C242.749 324.392 243.149 324.6 243.757 324.728L243.565 329.576C241.933 329.576 240.621 329.464 239.629 329.24C238.669 329.016 237.693 328.568 236.701 327.896C234.397 329.016 232.045 329.576 229.645 329.576C224.685 329.576 222.205 326.952 222.205 321.704C222.205 319.144 222.893 317.336 224.269 316.28C225.645 315.192 227.757 314.552 230.605 314.36L235.741 313.976V312.488C235.741 311.496 235.517 310.824 235.069 310.472C234.621 310.088 233.901 309.896 232.909 309.896L223.885 310.28L223.693 305.816C227.117 304.888 230.365 304.424 233.437 304.424C236.541 304.424 238.765 305.064 240.109 306.344C241.485 307.624 242.173 309.672 242.173 312.488ZM231.373 318.824C229.581 318.984 228.685 319.944 228.685 321.704C228.685 323.464 229.469 324.344 231.037 324.344C232.253 324.344 233.581 324.152 235.021 323.768L235.741 323.576V318.44L231.373 318.824ZM265.536 311C261.568 310.488 258.784 310.232 257.184 310.232C255.616 310.232 254.592 310.376 254.112 310.664C253.664 310.952 253.44 311.416 253.44 312.056C253.44 312.664 253.744 313.096 254.352 313.352C254.992 313.576 256.592 313.928 259.152 314.408C261.744 314.856 263.584 315.608 264.672 316.664C265.76 317.72 266.304 319.432 266.304 321.8C266.304 326.984 263.088 329.576 256.656 329.576C254.544 329.576 251.984 329.288 248.976 328.712L247.44 328.424L247.632 323.048C251.6 323.56 254.352 323.816 255.888 323.816C257.456 323.816 258.512 323.672 259.056 323.384C259.632 323.064 259.92 322.6 259.92 321.992C259.92 321.384 259.616 320.936 259.008 320.648C258.432 320.36 256.896 320.008 254.4 319.592C251.936 319.176 250.096 318.472 248.88 317.48C247.664 316.488 247.056 314.728 247.056 312.2C247.056 309.64 247.92 307.72 249.648 306.44C251.376 305.128 253.6 304.472 256.32 304.472C258.208 304.472 260.784 304.776 264.048 305.384L265.632 305.672L265.536 311ZM276.225 319.736C276.257 321.208 276.641 322.28 277.377 322.952C278.145 323.592 279.233 323.912 280.641 323.912C283.617 323.912 286.273 323.816 288.609 323.624L289.953 323.48L290.049 328.232C286.369 329.128 283.041 329.576 280.065 329.576C276.449 329.576 273.825 328.616 272.193 326.696C270.561 324.776 269.745 321.656 269.745 317.336C269.745 308.728 273.281 304.424 280.353 304.424C287.329 304.424 290.817 308.04 290.817 315.272L290.337 319.736H276.225ZM284.481 314.84C284.481 312.92 284.177 311.592 283.569 310.856C282.961 310.088 281.889 309.704 280.353 309.704C278.849 309.704 277.777 310.104 277.137 310.904C276.529 311.672 276.209 312.984 276.177 314.84H284.481ZM312.646 311C308.678 310.488 305.894 310.232 304.294 310.232C302.726 310.232 301.702 310.376 301.222 310.664C300.774 310.952 300.55 311.416 300.55 312.056C300.55 312.664 300.854 313.096 301.462 313.352C302.102 313.576 303.702 313.928 306.262 314.408C308.854 314.856 310.694 315.608 311.782 316.664C312.87 317.72 313.414 319.432 313.414 321.8C313.414 326.984 310.198 329.576 303.766 329.576C301.654 329.576 299.094 329.288 296.086 328.712L294.55 328.424L294.742 323.048C298.71 323.56 301.462 323.816 302.998 323.816C304.566 323.816 305.622 323.672 306.166 323.384C306.742 323.064 307.03 322.6 307.03 321.992C307.03 321.384 306.726 320.936 306.118 320.648C305.542 320.36 304.006 320.008 301.51 319.592C299.046 319.176 297.206 318.472 295.99 317.48C294.774 316.488 294.166 314.728 294.166 312.2C294.166 309.64 295.03 307.72 296.758 306.44C298.486 305.128 300.71 304.472 303.43 304.472C305.318 304.472 307.894 304.776 311.158 305.384L312.742 305.672L312.646 311ZM331.35 310.472H325.446V320.312C325.446 321.272 325.462 321.96 325.494 322.376C325.558 322.76 325.734 323.096 326.022 323.384C326.342 323.672 326.822 323.816 327.462 323.816L331.11 323.72L331.398 328.856C329.254 329.336 327.622 329.576 326.502 329.576C323.622 329.576 321.654 328.936 320.598 327.656C319.542 326.344 319.014 323.944 319.014 320.456V310.472H316.182V305H319.014V298.328H325.446V305H331.35V310.472ZM349.699 305H356.131V329H349.747V327.656C347.443 328.936 345.443 329.576 343.747 329.576C340.419 329.576 338.179 328.664 337.027 326.84C335.875 324.984 335.299 321.896 335.299 317.576V305H341.731V317.672C341.731 320.04 341.923 321.656 342.307 322.52C342.691 323.384 343.619 323.816 345.091 323.816C346.499 323.816 347.827 323.592 349.075 323.144L349.699 322.952V305ZM382.47 295.4V329H376.086V327.992C373.846 329.048 371.91 329.576 370.278 329.576C366.79 329.576 364.358 328.568 362.982 326.552C361.606 324.536 360.918 321.352 360.918 317C360.918 312.616 361.734 309.432 363.366 307.448C365.03 305.432 367.526 304.424 370.854 304.424C371.878 304.424 373.302 304.584 375.126 304.904L376.038 305.096V295.4H382.47ZM375.366 323.24L376.038 323.096V310.472C374.278 310.152 372.71 309.992 371.334 309.992C368.742 309.992 367.446 312.296 367.446 316.904C367.446 319.4 367.734 321.176 368.31 322.232C368.886 323.288 369.83 323.816 371.142 323.816C372.486 323.816 373.894 323.624 375.366 323.24ZM386.206 305H392.542L396.91 323.528H398.014L402.382 305H408.718L400.27 339.08H393.982L396.622 329H392.11L386.206 305Z" fill="black"/>
<rect x="330.5" y="120.5" width="99" height="69" stroke="black"/>
</svg>
