<svg width="440" height="440" viewBox="0 0 440 440" fill="none" xmlns="http://www.w3.org/2000/svg">
<rect x="0.5" y="29.5" width="439" height="410" fill="white" stroke="black"/>
<rect x="0.5" y="0.5" width="439" height="29" stroke="black"/>
<circle cx="16" cy="15" r="9.5" fill="black" stroke="black"/>
<circle cx="40" cy="15" r="9.5" stroke="black"/>
<circle cx="64" cy="15" r="9.5" stroke="black"/>
<rect x="10.5" y="40.5" width="419" height="69" stroke="black"/>
<rect x="10.5" y="120.5" width="419" height="69" stroke="black"/>
<rect x="10.5" y="200.5" width="419" height="69" stroke="black"/>
<rect x="10.5" y="280.5" width="419" height="69" stroke="black"/>
<rect x="10.5" y="360.5" width="419" height="69" stroke="black"/>
<rect x="34" y="194" width="10" height="36" fill="#BEC7EC"/>
<rect x="124" y="140" width="10" height="90" fill="#BEC7EC"/>
<rect x="184" y="140" width="10" height="90" fill="#BEC7EC"/>
<rect x="64" y="77" width="10" height="153" fill="#43506A"/>
<rect x="94" y="100" width="10" height="130" fill="#BEC7EC"/>
<rect x="154" y="130" width="10" height="100" fill="#BEC7EC"/>
</svg>
