<svg width="440" height="440" viewBox="0 0 440 440" fill="none" xmlns="http://www.w3.org/2000/svg">
<rect x="0.5" y="29.5" width="439" height="410" fill="white" stroke="black"/>
<rect x="0.5" y="0.5" width="439" height="29" stroke="black"/>
<circle cx="16" cy="15" r="9.5" fill="black" stroke="black"/>
<circle cx="40" cy="15" r="9.5" stroke="black"/>
<circle cx="64" cy="15" r="9.5" stroke="black"/>
<rect x="10.5" y="40.5" width="69" height="189" stroke="black"/>
<rect x="10.5" y="40.5" width="419" height="69" stroke="black"/>
<rect x="90.5" y="120.5" width="229" height="69" stroke="black"/>
<rect x="90.5" y="200.5" width="339" height="229" stroke="black"/>
<rect x="90.5" y="200.5" width="339" height="49" stroke="black"/>
<rect x="90.5" y="249.5" width="339" height="30" stroke="black"/>
<rect x="90.5" y="279.5" width="339" height="30" stroke="black"/>
<rect x="90.5" y="309.5" width="339" height="30" stroke="black"/>
<rect x="90.5" y="339.5" width="339" height="30" stroke="black"/>
<rect x="90.5" y="369.5" width="339" height="30" stroke="black"/>
<rect x="330.5" y="120.5" width="99" height="69" stroke="black"/>
<rect x="120.5" y="195.5" width="199" height="48" fill="white"/>
<path d="M132.83 210.545H130.614L137.023 228H139.205L145.614 210.545H143.398L138.216 225.239H138.011L132.83 210.545ZM148.06 228H150.071V214.909H148.06V228ZM149.082 212.727C149.866 212.727 150.514 212.114 150.514 211.364C150.514 210.614 149.866 210 149.082 210C148.298 210 147.651 210.614 147.651 211.364C147.651 212.114 148.298 212.727 149.082 212.727ZM159.244 228.273C161.903 228.273 163.846 226.943 164.46 224.966L162.516 224.42C162.005 225.784 160.82 226.466 159.244 226.466C156.883 226.466 155.255 224.94 155.161 222.136H164.664V221.284C164.664 216.409 161.766 214.739 159.039 214.739C155.494 214.739 153.141 217.534 153.141 221.557C153.141 225.58 155.46 228.273 159.244 228.273ZM155.161 220.398C155.298 218.361 156.738 216.545 159.039 216.545C161.221 216.545 162.619 218.182 162.619 220.398H155.161ZM170.69 228H172.667L175.531 217.943H175.735L178.599 228H180.576L184.565 214.909H182.451L179.621 224.898H179.485L176.724 214.909H174.576L171.781 224.932H171.644L168.815 214.909H166.701L170.69 228ZM199.292 228.273C202.19 228.273 204.099 226.5 204.44 224.182H202.428C202.053 225.614 200.86 226.466 199.292 226.466C196.906 226.466 195.371 224.489 195.371 221.455C195.371 218.489 196.94 216.545 199.292 216.545C201.065 216.545 202.121 217.636 202.428 218.83H204.44C204.099 216.375 202.019 214.739 199.258 214.739C195.712 214.739 193.36 217.534 193.36 221.523C193.36 225.443 195.61 228.273 199.292 228.273ZM211.232 228.307C213.516 228.307 214.71 227.08 215.119 226.227H215.221V228H217.232V219.375C217.232 215.216 214.062 214.739 212.391 214.739C210.414 214.739 208.164 215.42 207.141 217.807L209.05 218.489C209.494 217.534 210.542 216.511 212.46 216.511C214.309 216.511 215.221 217.491 215.221 219.17V219.239C215.221 220.21 214.232 220.125 211.846 220.432C209.417 220.747 206.766 221.284 206.766 224.284C206.766 226.841 208.744 228.307 211.232 228.307ZM211.539 226.5C209.937 226.5 208.778 225.784 208.778 224.386C208.778 222.852 210.175 222.375 211.744 222.17C212.596 222.068 214.88 221.83 215.221 221.42V223.261C215.221 224.898 213.925 226.5 211.539 226.5ZM230.176 217.841C229.545 215.983 228.131 214.739 225.54 214.739C222.778 214.739 220.733 216.307 220.733 218.523C220.733 220.33 221.807 221.54 224.21 222.102L226.392 222.614C227.713 222.92 228.335 223.551 228.335 224.455C228.335 225.58 227.142 226.5 225.267 226.5C223.622 226.5 222.591 225.793 222.233 224.386L220.324 224.864C220.793 227.088 222.625 228.273 225.301 228.273C228.344 228.273 230.415 226.611 230.415 224.352C230.415 222.528 229.273 221.378 226.938 220.807L224.994 220.33C223.443 219.946 222.744 219.426 222.744 218.42C222.744 217.295 223.938 216.477 225.54 216.477C227.295 216.477 228.02 217.449 228.369 218.352L230.176 217.841ZM238.931 228.273C241.59 228.273 243.533 226.943 244.147 224.966L242.204 224.42C241.692 225.784 240.508 226.466 238.931 226.466C236.57 226.466 234.942 224.94 234.849 222.136H244.352V221.284C244.352 216.409 241.454 214.739 238.727 214.739C235.181 214.739 232.829 217.534 232.829 221.557C232.829 225.58 235.147 228.273 238.931 228.273ZM234.849 220.398C234.985 218.361 236.425 216.545 238.727 216.545C240.908 216.545 242.306 218.182 242.306 220.398H234.849ZM256.684 217.841C256.053 215.983 254.638 214.739 252.048 214.739C249.286 214.739 247.241 216.307 247.241 218.523C247.241 220.33 248.315 221.54 250.718 222.102L252.9 222.614C254.221 222.92 254.843 223.551 254.843 224.455C254.843 225.58 253.65 226.5 251.775 226.5C250.13 226.5 249.099 225.793 248.741 224.386L246.832 224.864C247.3 227.088 249.133 228.273 251.809 228.273C254.852 228.273 256.923 226.611 256.923 224.352C256.923 222.528 255.781 221.378 253.445 220.807L251.502 220.33C249.951 219.946 249.252 219.426 249.252 218.42C249.252 217.295 250.445 216.477 252.048 216.477C253.803 216.477 254.528 217.449 254.877 218.352L256.684 217.841ZM265.643 214.909H262.848V211.773H260.837V214.909H258.859V216.614H260.837V224.795C260.837 227.08 262.678 228.17 264.382 228.17C265.132 228.17 265.609 228.034 265.882 227.932L265.473 226.125C265.303 226.159 265.03 226.227 264.587 226.227C263.7 226.227 262.848 225.955 262.848 224.25V216.614H265.643V214.909ZM276.919 222.648C276.919 225.102 275.044 226.227 273.544 226.227C271.874 226.227 270.68 225 270.68 223.091V214.909H268.669V223.227C268.669 226.568 270.442 228.17 272.896 228.17C274.874 228.17 276.169 227.114 276.783 225.784H276.919V228H278.93V214.909H276.919V222.648ZM287.558 228.273C290.08 228.273 290.933 226.705 291.376 225.989H291.614V228H293.558V210.545H291.546V216.989H291.376C290.933 216.307 290.148 214.739 287.592 214.739C284.285 214.739 282.001 217.364 282.001 221.489C282.001 225.648 284.285 228.273 287.558 228.273ZM287.83 226.466C285.308 226.466 284.012 224.25 284.012 221.455C284.012 218.693 285.273 216.545 287.83 216.545C290.285 216.545 291.58 218.523 291.58 221.455C291.58 224.42 290.251 226.466 287.83 226.466ZM298.816 232.875C300.631 232.875 301.918 231.912 302.668 229.909L308.242 214.943L306.043 214.909L302.43 225.341H302.293L298.68 214.909H296.498L301.339 228.068L300.964 229.091C300.248 231.051 299.327 231.239 297.862 230.864L297.35 232.636C297.555 232.739 298.134 232.875 298.816 232.875Z" fill="black"/>
<rect x="120.5" y="195.5" width="199" height="48" stroke="black"/>
</svg>
